<?xml version="1.0" encoding="UTF-8"?><svg id="Layer_1" xmlns="http://www.w3.org/2000/svg" viewBox="0 0 1366.16 339.4"><defs><style>.cls-1{fill:#0eacf6;fill-rule:evenodd;}</style></defs><path class="cls-1" d="M102.9,0c-1.25,0-2.4,.68-3.06,1.83-.68,1.18-.7,2.56-.05,3.68l40.17,69.37c.73,1.21,1.96,1.93,3.33,1.9,1.28-.02,2.42-.72,3.05-1.87L185.99,5.49c.69-1.09,.71-2.4,.08-3.54-.66-1.2-1.89-1.95-3.2-1.95H102.9Z"/><path class="cls-1" d="M480.58,264.7c-.64-1.1-1.8-1.76-3.11-1.76s-2.47,.66-3.11,1.76l-40.17,69.19c-.65,1.18-.63,2.59,.05,3.75,.65,1.1,1.79,1.76,3.06,1.76h80.35c1.25,0,2.4-.68,3.06-1.83,.68-1.18,.7-2.55,.05-3.67l-40.17-69.19Z"/><path class="cls-1" d="M381.45,264.7c-.64-1.1-1.8-1.76-3.11-1.76s-2.47,.66-3.11,1.76l-40.17,69.19c-.65,1.18-.63,2.59,.05,3.75,.65,1.1,1.79,1.76,3.06,1.76h80.35c1.25,0,2.4-.68,3.06-1.83,.68-1.18,.7-2.55,.05-3.67l-40.17-69.19Z"/><path class="cls-1" d="M471.24,259.43c-.66-1.15-1.8-1.83-3.06-1.83h-80.35c-1.26,0-2.4,.66-3.05,1.76-.69,1.16-.7,2.57-.03,3.78l40.15,69.15c.64,1.1,1.8,1.76,3.11,1.76s2.47-.66,3.11-1.76l40.17-69.19c.65-1.12,.63-2.5-.05-3.67Z"/><path class="cls-1" d="M372.1,259.43c-.66-1.15-1.8-1.83-3.06-1.83h-80.35c-1.26,0-2.4,.66-3.06,1.76-.68,1.16-.7,2.57-.03,3.78l40.15,69.15c.64,1.1,1.8,1.76,3.11,1.76s2.47-.66,3.11-1.76h0l40.17-69.19c.65-1.12,.63-2.5-.05-3.67Z"/><path class="cls-1" d="M332.35,179.14c-.68-1.08-1.91-1.75-3.26-1.75-1.37,.02-2.51,.68-3.13,1.76h0s-40.36,69.38-40.36,69.38c-.69,1.15-.72,2.5-.08,3.63,.65,1.15,1.88,1.87,3.19,1.87h79.98c1.31,0,2.51-.72,3.21-1.94,.67-1.16,.7-2.5,.08-3.57l-39.62-69.38Z"/><path class="cls-1" d="M382.19,93.4c-.68-1.08-1.91-1.75-3.26-1.75-1.37,.03-2.51,.68-3.13,1.76h0l-40.36,69.37c-.69,1.15-.72,2.51-.08,3.63,.65,1.15,1.88,1.87,3.19,1.87h79.98c1.24,0,2.38-.68,3.07-1.82,.71-1.18,.79-2.62,.19-3.76l-39.59-69.32Z"/><path class="cls-1" d="M335.07,177.18l39.62,69.38c.64,1.17,1.78,1.87,3.06,1.89,1.34,.02,2.61-.69,3.35-1.92l40.35-69.36c.65-1.12,.63-2.49-.05-3.67-.66-1.15-1.8-1.83-3.06-1.83h-79.98c-1.36,0-2.57,.7-3.25,1.88-.67,1.16-.68,2.51-.04,3.62h0Z"/><path class="cls-1" d="M424.53,160.82c.64,1.17,1.78,1.87,3.06,1.89,1.36,.03,2.62-.7,3.35-1.92l40.35-69.35c.65-1.12,.63-2.49-.05-3.67-.66-1.15-1.8-1.83-3.06-1.83h-79.98c-1.36,0-2.57,.7-3.25,1.88-.67,1.16-.68,2.51-.04,3.62l39.62,69.38Z"/><path class="cls-1" d="M186.11,173.5c-.66-1.15-1.8-1.83-3.06-1.83H102.71c-1.26,0-2.4,.66-3.06,1.76-.68,1.16-.7,2.57-.03,3.78l40.15,69.15c.64,1.1,1.8,1.76,3.11,1.76s2.47-.66,3.11-1.76h0s40.17-69.19,40.17-69.19c.65-1.12,.63-2.5-.05-3.67Z"/><path class="cls-1" d="M86.98,173.5c-.66-1.15-1.8-1.83-3.06-1.83H3.58c-1.26,0-2.4,.66-3.06,1.76-.68,1.15-.7,2.56-.04,3.77l40.16,69.16c.64,1.1,1.8,1.76,3.11,1.76s2.47-.66,3.11-1.76l40.17-69.19c.65-1.12,.63-2.5-.05-3.67Z"/><path class="cls-1" d="M285.24,173.43c-.65-1.1-1.79-1.76-3.06-1.76h-80.35c-1.25,0-2.4,.68-3.06,1.83-.68,1.18-.7,2.55-.05,3.68l40.17,69.18c.64,1.1,1.8,1.76,3.11,1.76s2.47-.66,3.11-1.76l40.17-69.19c.65-1.18,.63-2.59-.05-3.75Z"/><path class="cls-1" d="M47.41,93.21c-.68-1.08-1.91-1.75-3.26-1.75-1.37,.03-2.51,.68-3.13,1.76h0L.66,162.6c-.69,1.16-.72,2.51-.08,3.64,.65,1.15,1.88,1.87,3.19,1.87H83.74c1.29,0,2.44-.67,3.09-1.8,.64-1.11,.65-2.43,.01-3.52L47.41,93.21Z"/><path class="cls-1" d="M97.07,7.28c-.68-1.08-1.91-1.75-3.26-1.75-1.37,.02-2.51,.68-3.13,1.76L50.31,76.67c-.69,1.15-.72,2.5-.08,3.63,.65,1.15,1.88,1.87,3.19,1.87h79.98c1.36,0,2.58-.68,3.25-1.81s.68-2.53,.03-3.72L97.07,7.28Z"/><path class="cls-1" d="M89.75,160.63c.64,1.17,1.78,1.87,3.05,1.89,1.36,.02,2.63-.71,3.35-1.92l40.35-69.35c.65-1.12,.63-2.49-.05-3.67-.66-1.15-1.8-1.83-3.06-1.83H53.42c-1.36,0-2.58,.68-3.25,1.81-.67,1.14-.68,2.53-.03,3.73l39.6,69.35Z"/><path class="cls-1" d="M198.96,166.22c.68,1.18,1.9,1.89,3.25,1.89h79.98c1.31,0,2.54-.72,3.19-1.87,.64-1.13,.61-2.48-.07-3.61h0s-40.36-69.4-40.36-69.4c-.63-1.08-1.77-1.74-3.06-1.76h0c-1.42,0-2.66,.68-3.37,1.82l-39.57,69.31c-.65,1.12-.63,2.47,.04,3.63Z"/><path class="cls-1" d="M149.31,80.53c.66,1.15,1.8,1.83,3.06,1.83h79.98c1.31,0,2.54-.72,3.19-1.87,.64-1.13,.61-2.48-.07-3.61L195.09,7.48c-.63-1.08-1.77-1.74-3.06-1.76-1.43,0-2.66,.68-3.38,1.82l-39.39,69.31c-.65,1.12-.63,2.5,.05,3.68Z"/><path class="cls-1" d="M189.62,160.62c.73,1.21,1.95,1.93,3.33,1.9,1.28-.02,2.42-.72,3.05-1.87l39.64-69.42c.69-1.09,.71-2.4,.08-3.54-.66-1.2-1.89-1.95-3.2-1.95h-79.98c-1.25,0-2.4,.68-3.06,1.83-.68,1.18-.7,2.56-.05,3.68l40.17,69.37Z"/><g><path d="M591.84,152.63h-35.74l-6.14,17.44h-14.62l30.59-85.49h16.21l30.58,85.49h-14.74l-6.14-17.44Zm-3.93-11.42l-13.88-39.67-14,39.67h27.88Z"/><path d="M650,104.17c3.4-1.92,7.43-2.89,12.1-2.89v14.49h-3.56c-5.49,0-9.64,1.39-12.47,4.18-2.83,2.79-4.24,7.62-4.24,14.49v35.62h-14V102.39h14v9.83c2.05-3.44,4.77-6.12,8.17-8.05Z"/><path d="M676.41,117.81c2.82-5.28,6.73-9.35,11.73-12.22,4.99-2.87,10.73-4.3,17.2-4.3,8.19,0,14.96,1.95,20.33,5.83,5.36,3.89,8.99,9.44,10.87,16.64h-15.11c-1.23-3.36-3.19-5.98-5.9-7.86-2.7-1.88-6.1-2.83-10.19-2.83-5.73,0-10.3,2.03-13.7,6.08-3.4,4.05-5.1,9.73-5.1,17.01s1.7,12.98,5.1,17.07c3.4,4.1,7.96,6.14,13.7,6.14,8.11,0,13.47-3.56,16.09-10.69h15.11c-1.97,6.88-5.65,12.34-11.06,16.4-5.4,4.05-12.12,6.08-20.14,6.08-6.47,0-12.2-1.45-17.2-4.36-5-2.91-8.91-7-11.73-12.28-2.83-5.28-4.24-11.4-4.24-18.36s1.41-13.08,4.24-18.36Z"/><path d="M801.21,104.6c4.05,2.21,7.25,5.49,9.58,9.83,2.33,4.34,3.5,9.58,3.5,15.72v39.92h-13.88v-37.83c0-6.06-1.52-10.71-4.54-13.94-3.03-3.23-7.17-4.85-12.41-4.85s-9.4,1.62-12.47,4.85c-3.07,3.24-4.61,7.88-4.61,13.94v37.83h-14V79.17h14v31.08c2.38-2.87,5.38-5.08,9.03-6.63,3.64-1.55,7.63-2.33,11.98-2.33,5.16,0,9.76,1.11,13.82,3.32Z"/><path d="M834.68,90.84c-1.72-1.72-2.58-3.85-2.58-6.39s.86-4.67,2.58-6.39,3.85-2.58,6.39-2.58,4.54,.86,6.26,2.58c1.72,1.72,2.58,3.85,2.58,6.39s-.86,4.67-2.58,6.39c-1.72,1.72-3.81,2.58-6.26,2.58s-4.67-.86-6.39-2.58Zm13.27,11.55v67.68h-14V102.39h14Z"/><path d="M891.92,104.48c4.09-2.13,8.72-3.19,13.88-3.19,5.9,0,11.28,1.46,16.15,4.36,4.87,2.91,8.7,6.98,11.49,12.22,2.78,5.24,4.18,11.26,4.18,18.06s-1.39,12.88-4.18,18.24c-2.79,5.36-6.61,9.54-11.49,12.53-4.87,2.99-10.26,4.48-16.15,4.48-5.16,0-9.75-1.04-13.76-3.13-4.01-2.09-7.29-4.69-9.83-7.8v42.01h-14V102.39h14v9.95c2.38-3.11,5.61-5.73,9.7-7.86Zm28.56,19.35c-1.92-3.4-4.46-5.98-7.62-7.74-3.15-1.76-6.53-2.64-10.13-2.64s-6.86,.9-10.01,2.7c-3.15,1.8-5.69,4.42-7.62,7.86-1.92,3.44-2.89,7.49-2.89,12.16s.96,8.74,2.89,12.22c1.92,3.48,4.46,6.12,7.62,7.92,3.15,1.8,6.49,2.7,10.01,2.7s6.98-.92,10.13-2.76c3.15-1.84,5.69-4.52,7.62-8.05,1.92-3.52,2.89-7.62,2.89-12.28s-.96-8.7-2.89-12.1Z"/><path d="M1014.87,141.45h-51.71c.41,5.4,2.41,9.75,6.02,13.02,3.6,3.28,8.02,4.91,13.27,4.91,7.53,0,12.86-3.15,15.97-9.46h15.11c-2.05,6.22-5.75,11.32-11.12,15.29-5.36,3.97-12.02,5.96-19.96,5.96-6.47,0-12.26-1.45-17.38-4.36-5.12-2.91-9.13-7-12.04-12.28-2.91-5.28-4.36-11.4-4.36-18.36s1.41-13.08,4.24-18.36,6.8-9.35,11.92-12.22c5.12-2.87,10.99-4.3,17.63-4.3s12.08,1.39,17.07,4.18c4.99,2.79,8.88,6.69,11.67,11.73,2.78,5.04,4.18,10.83,4.18,17.38,0,2.54-.17,4.83-.49,6.88Zm-14.12-11.3c-.08-5.16-1.93-9.29-5.53-12.41-3.6-3.11-8.07-4.67-13.39-4.67-4.83,0-8.97,1.54-12.41,4.61-3.44,3.07-5.49,7.23-6.14,12.47h37.46Z"/><path d="M1044.96,79.17v90.9h-14V79.17h14Z"/><path d="M1064.8,117.87c2.83-5.24,6.67-9.31,11.55-12.22,4.87-2.91,10.26-4.36,16.15-4.36,5.32,0,9.97,1.04,13.94,3.13,3.97,2.09,7.14,4.69,9.52,7.8v-9.83h14.12v67.68h-14.12v-10.07c-2.38,3.19-5.61,5.86-9.7,7.98-4.1,2.13-8.76,3.19-14,3.19-5.82,0-11.14-1.49-15.97-4.48-4.83-2.99-8.66-7.16-11.49-12.53-2.83-5.36-4.24-11.44-4.24-18.24s1.41-12.81,4.24-18.06Zm48.27,6.14c-1.92-3.44-4.44-6.06-7.55-7.86-3.11-1.8-6.47-2.7-10.07-2.7s-6.96,.88-10.07,2.64c-3.11,1.76-5.63,4.34-7.55,7.74-1.92,3.4-2.89,7.43-2.89,12.1s.96,8.76,2.89,12.28c1.92,3.52,4.46,6.2,7.62,8.05,3.15,1.84,6.49,2.76,10.01,2.76s6.96-.9,10.07-2.7c3.11-1.8,5.63-4.44,7.55-7.92,1.92-3.48,2.89-7.55,2.89-12.22s-.96-8.72-2.89-12.16Z"/><path d="M1191.56,104.42c4.05,2.09,7.23,4.69,9.52,7.8v-9.83h14.12v68.79c0,6.22-1.31,11.77-3.93,16.64-2.62,4.87-6.41,8.7-11.36,11.48-4.96,2.78-10.87,4.18-17.75,4.18-9.17,0-16.79-2.15-22.85-6.45-6.06-4.3-9.5-10.13-10.32-17.5h13.88c1.06,3.52,3.34,6.37,6.82,8.54,3.48,2.17,7.63,3.25,12.47,3.25,5.65,0,10.21-1.72,13.7-5.16,3.48-3.44,5.22-8.44,5.22-14.99v-11.3c-2.38,3.19-5.59,5.88-9.64,8.05-4.05,2.17-8.66,3.25-13.82,3.25-5.9,0-11.28-1.49-16.15-4.48-4.87-2.99-8.72-7.16-11.55-12.53-2.83-5.36-4.24-11.44-4.24-18.24s1.41-12.81,4.24-18.06c2.83-5.24,6.67-9.31,11.55-12.22,4.87-2.91,10.26-4.36,16.15-4.36,5.24,0,9.89,1.04,13.94,3.13Zm6.63,19.59c-1.92-3.44-4.44-6.06-7.55-7.86-3.11-1.8-6.47-2.7-10.07-2.7s-6.96,.88-10.07,2.64c-3.11,1.76-5.63,4.34-7.55,7.74-1.92,3.4-2.89,7.43-2.89,12.1s.96,8.76,2.89,12.28c1.92,3.52,4.46,6.2,7.62,8.05,3.15,1.84,6.49,2.76,10.01,2.76s6.96-.9,10.07-2.7c3.11-1.8,5.63-4.44,7.55-7.92,1.92-3.48,2.89-7.55,2.89-12.22s-.96-8.72-2.89-12.16Z"/><path d="M1247.51,166.82c-5.16-2.91-9.21-7-12.16-12.28-2.95-5.28-4.42-11.4-4.42-18.36s1.51-12.98,4.54-18.3c3.03-5.32,7.16-9.42,12.41-12.28,5.24-2.87,11.1-4.3,17.57-4.3s12.32,1.43,17.56,4.3c5.24,2.87,9.38,6.96,12.41,12.28,3.03,5.32,4.54,11.42,4.54,18.3s-1.56,12.98-4.67,18.3c-3.11,5.32-7.35,9.44-12.71,12.34-5.36,2.91-11.28,4.36-17.75,4.36s-12.16-1.45-17.32-4.36Zm27.45-10.38c3.15-1.72,5.71-4.3,7.68-7.74,1.97-3.44,2.95-7.62,2.95-12.53s-.94-9.07-2.83-12.47c-1.88-3.4-4.38-5.96-7.49-7.68-3.11-1.72-6.47-2.58-10.07-2.58s-6.94,.86-10.01,2.58c-3.07,1.72-5.51,4.28-7.31,7.68-1.8,3.4-2.7,7.55-2.7,12.47,0,7.29,1.86,12.92,5.59,16.89,3.73,3.97,8.41,5.96,14.06,5.96,3.6,0,6.98-.86,10.13-2.58Z"/><path d="M1325.94,168.29c-4.22-1.92-7.55-4.54-10.01-7.86-2.46-3.32-3.77-7.02-3.93-11.12h14.49c.25,2.87,1.62,5.26,4.12,7.19,2.5,1.92,5.63,2.89,9.4,2.89s6.98-.76,9.15-2.27c2.17-1.51,3.25-3.46,3.25-5.83,0-2.54-1.21-4.42-3.62-5.65-2.42-1.23-6.25-2.58-11.48-4.05-5.08-1.39-9.21-2.74-12.41-4.05-3.19-1.31-5.96-3.32-8.29-6.02s-3.5-6.26-3.5-10.69c0-3.6,1.06-6.9,3.19-9.89,2.13-2.99,5.18-5.34,9.15-7.06,3.97-1.72,8.54-2.58,13.7-2.58,7.7,0,13.9,1.95,18.61,5.83,4.71,3.89,7.23,9.19,7.55,15.91h-14c-.25-3.03-1.47-5.44-3.69-7.25-2.21-1.8-5.2-2.7-8.97-2.7s-6.51,.7-8.47,2.09c-1.97,1.39-2.95,3.24-2.95,5.53,0,1.8,.65,3.32,1.96,4.54,1.31,1.23,2.91,2.19,4.79,2.89,1.88,.7,4.67,1.58,8.35,2.64,4.91,1.31,8.95,2.64,12.1,3.99,3.15,1.35,5.88,3.34,8.17,5.96,2.29,2.62,3.48,6.1,3.56,10.44,0,3.85-1.07,7.29-3.19,10.32-2.13,3.03-5.14,5.4-9.03,7.12-3.89,1.72-8.46,2.58-13.7,2.58s-10.09-.96-14.31-2.89Z"/></g><g><path d="M598.53,257.94h21.15v4.8h-27.05v-58.9h5.9v54.1Z"/><path d="M629.5,227.22c1.88-3.57,4.49-6.32,7.84-8.26,3.34-1.94,7.12-2.91,11.33-2.91s8.16,1.01,11.33,3.03c3.17,2.02,5.46,4.61,6.87,7.75v-10.11h5.9v46.01h-5.9v-10.2c-1.46,3.15-3.78,5.74-6.95,7.79-3.17,2.05-6.95,3.08-11.33,3.08s-7.91-.98-11.25-2.95c-3.34-1.97-5.95-4.75-7.84-8.34-1.88-3.59-2.82-7.75-2.82-12.47s.94-8.86,2.82-12.43Zm35.1,2.74c-1.52-2.81-3.58-4.97-6.19-6.49-2.61-1.52-5.49-2.28-8.64-2.28s-6.18,.73-8.76,2.19c-2.58,1.46-4.62,3.58-6.11,6.36-1.49,2.78-2.23,6.08-2.23,9.9s.74,7.06,2.23,9.9c1.49,2.84,3.52,5,6.11,6.49,2.58,1.49,5.5,2.23,8.76,2.23s6.02-.76,8.64-2.28c2.61-1.52,4.68-3.68,6.19-6.49,1.52-2.81,2.28-6.07,2.28-9.77s-.76-6.96-2.28-9.77Z"/><path d="M700.36,219.09c3.17-2.02,6.92-3.03,11.25-3.03s7.98,.97,11.29,2.91,5.91,4.69,7.79,8.26c1.88,3.57,2.82,7.71,2.82,12.43s-.94,8.88-2.82,12.47c-1.88,3.6-4.5,6.38-7.84,8.34-3.34,1.97-7.09,2.95-11.25,2.95-4.38,0-8.16-1-11.33-2.99-3.17-1.99-5.49-4.59-6.95-7.79v10.11h-5.81v-62.35h5.81v26.54c1.52-3.2,3.86-5.81,7.04-7.84Zm24.94,10.66c-1.49-2.78-3.53-4.9-6.11-6.36-2.58-1.46-5.51-2.19-8.76-2.19s-6.02,.76-8.64,2.28-4.68,3.68-6.19,6.49c-1.52,2.81-2.28,6.07-2.28,9.77s.76,6.97,2.28,9.77c1.52,2.81,3.58,4.97,6.19,6.49s5.49,2.28,8.64,2.28,6.18-.74,8.76-2.23c2.58-1.49,4.62-3.65,6.11-6.49,1.49-2.84,2.23-6.14,2.23-9.9s-.75-7.12-2.23-9.9Z"/><path d="M748.56,259.75c-3.34-2.44-5.21-5.77-5.6-9.99h6.07c.28,2.58,1.5,4.68,3.67,6.28,2.16,1.6,5.07,2.4,8.72,2.4,3.2,0,5.71-.76,7.54-2.27,1.83-1.52,2.74-3.4,2.74-5.65,0-1.57-.51-2.87-1.52-3.88-1.01-1.01-2.29-1.81-3.83-2.4-1.55-.59-3.64-1.22-6.28-1.9-3.43-.9-6.21-1.8-8.34-2.7-2.14-.9-3.95-2.23-5.43-4-1.49-1.77-2.23-4.14-2.23-7.12,0-2.25,.67-4.33,2.02-6.24,1.35-1.91,3.26-3.43,5.73-4.55,2.47-1.12,5.28-1.69,8.43-1.69,4.94,0,8.93,1.25,11.96,3.75,3.03,2.5,4.66,5.94,4.89,10.32h-5.9c-.17-2.7-1.22-4.87-3.16-6.53-1.94-1.66-4.59-2.49-7.96-2.49-2.98,0-5.39,.7-7.25,2.11-1.85,1.4-2.78,3.15-2.78,5.22,0,1.8,.55,3.27,1.64,4.42,1.1,1.15,2.46,2.05,4.09,2.7,1.63,.65,3.82,1.36,6.57,2.15,3.31,.9,5.95,1.77,7.92,2.61,1.97,.84,3.65,2.08,5.06,3.71,1.4,1.63,2.13,3.79,2.19,6.49,0,2.47-.67,4.68-2.02,6.61-1.35,1.94-3.23,3.47-5.65,4.59-2.42,1.12-5.2,1.68-8.34,1.68-5.28,0-9.59-1.22-12.93-3.67Z"/></g></svg>